<mxfile host="65bd71144e">
    <diagram id="P1spx1BvdZNsPpxbZtUQ" name="DFD 0">
        <mxGraphModel dx="913" dy="995" grid="1" gridSize="10" guides="1" tooltips="1" connect="1" arrows="1" fold="1" page="1" pageScale="1" pageWidth="850" pageHeight="1100" math="0" shadow="0">
            <root>
                <mxCell id="0"/>
                <mxCell id="1" parent="0"/>
                <mxCell id="2" value="&lt;font size=&quot;3&quot;&gt;Banking system&lt;/font&gt;" style="shape=ellipse;html=1;dashed=0;whitespace=wrap;aspect=fixed;perimeter=ellipsePerimeter;" parent="1" vertex="1">
                    <mxGeometry x="315" y="455" width="190" height="190" as="geometry"/>
                </mxCell>
                <mxCell id="13" style="edgeStyle=none;html=1;exitX=1;exitY=0.5;exitDx=0;exitDy=0;fontSize=18;" parent="1" source="3" edge="1">
                    <mxGeometry relative="1" as="geometry">
                        <mxPoint x="310.0000000000002" y="551.2857142857144" as="targetPoint"/>
                    </mxGeometry>
                </mxCell>
                <mxCell id="3" value="Customer" style="html=1;dashed=0;whitespace=wrap;fontSize=18;fontColor=#000000;strokeColor=#3A5431;" parent="1" vertex="1">
                    <mxGeometry x="30" y="525" width="100" height="50" as="geometry"/>
                </mxCell>
                <mxCell id="12" style="edgeStyle=none;html=1;exitX=0.5;exitY=0;exitDx=0;exitDy=0;entryX=0.5;entryY=1;entryDx=0;entryDy=0;fontSize=18;" parent="1" source="4" target="2" edge="1">
                    <mxGeometry relative="1" as="geometry"/>
                </mxCell>
                <mxCell id="4" value="Cashier" style="html=1;dashed=0;whitespace=wrap;fontSize=18;fontColor=#000000;strokeColor=#006EAF;" parent="1" vertex="1">
                    <mxGeometry x="360" y="860" width="100" height="50" as="geometry"/>
                </mxCell>
                <mxCell id="8" style="edgeStyle=none;html=1;exitX=0.5;exitY=1;exitDx=0;exitDy=0;fontSize=18;" parent="1" source="5" target="2" edge="1">
                    <mxGeometry relative="1" as="geometry"/>
                </mxCell>
                <mxCell id="5" value="Manager" style="html=1;dashed=0;whitespace=wrap;fontSize=18;fontColor=#000000;strokeColor=#006EAF;" parent="1" vertex="1">
                    <mxGeometry x="360" y="230" width="100" height="70" as="geometry"/>
                </mxCell>
                <mxCell id="9" style="edgeStyle=none;html=1;exitX=0;exitY=0.5;exitDx=0;exitDy=0;entryX=1;entryY=0.5;entryDx=0;entryDy=0;fontSize=18;" parent="1" source="6" target="2" edge="1">
                    <mxGeometry relative="1" as="geometry"/>
                </mxCell>
                <mxCell id="6" value="Bank" style="html=1;dashed=0;whitespace=wrap;fontSize=18;fontColor=#000000;strokeColor=#006EAF;" parent="1" vertex="1">
                    <mxGeometry x="720" y="525" width="100" height="50" as="geometry"/>
                </mxCell>
                <mxCell id="14" value="Manages loans&lt;br&gt;and employees" style="text;html=1;align=center;verticalAlign=middle;resizable=0;points=[];autosize=1;strokeColor=none;fillColor=none;fontSize=18;" parent="1" vertex="1">
                    <mxGeometry x="410" y="310" width="150" height="60" as="geometry"/>
                </mxCell>
                <mxCell id="15" value="Control branch" style="text;html=1;align=center;verticalAlign=middle;resizable=0;points=[];autosize=1;strokeColor=none;fillColor=none;fontSize=18;" parent="1" vertex="1">
                    <mxGeometry x="570" y="500" width="140" height="40" as="geometry"/>
                </mxCell>
                <mxCell id="16" value="Any customer related&amp;nbsp;&lt;br&gt;services like withdrawl&amp;nbsp;&lt;br&gt;deposits." style="text;html=1;align=center;verticalAlign=middle;resizable=0;points=[];autosize=1;strokeColor=none;fillColor=none;fontSize=18;" parent="1" vertex="1">
                    <mxGeometry x="410" y="760" width="210" height="80" as="geometry"/>
                </mxCell>
                <mxCell id="17" value="Transaction/Loan" style="text;html=1;align=center;verticalAlign=middle;resizable=0;points=[];autosize=1;strokeColor=none;fillColor=none;fontSize=18;" parent="1" vertex="1">
                    <mxGeometry x="140" y="560" width="160" height="40" as="geometry"/>
                </mxCell>
                <mxCell id="zvofmDwbq_4A2cF_RUKj-18" value="" style="endArrow=classic;html=1;fontSize=18;entryX=0.5;entryY=0;entryDx=0;entryDy=0;exitX=0;exitY=0;exitDx=0;exitDy=0;" parent="1" source="2" target="3" edge="1">
                    <mxGeometry width="50" height="50" relative="1" as="geometry">
                        <mxPoint x="230" y="455" as="sourcePoint"/>
                        <mxPoint x="350" y="355" as="targetPoint"/>
                        <Array as="points">
                            <mxPoint x="80" y="480"/>
                        </Array>
                    </mxGeometry>
                </mxCell>
                <mxCell id="zvofmDwbq_4A2cF_RUKj-19" value="Transaction/Loan Confirmation" style="text;html=1;align=center;verticalAlign=middle;resizable=0;points=[];autosize=1;strokeColor=none;fillColor=none;fontSize=18;" parent="1" vertex="1">
                    <mxGeometry x="5" y="430" width="270" height="40" as="geometry"/>
                </mxCell>
                <mxCell id="zvofmDwbq_4A2cF_RUKj-20" value="" style="endArrow=classic;html=1;fontSize=18;entryX=0;entryY=1;entryDx=0;entryDy=0;exitX=0.5;exitY=1;exitDx=0;exitDy=0;" parent="1" source="3" target="2" edge="1">
                    <mxGeometry width="50" height="50" relative="1" as="geometry">
                        <mxPoint x="70" y="760" as="sourcePoint"/>
                        <mxPoint x="240" y="610" as="targetPoint"/>
                        <Array as="points">
                            <mxPoint x="80" y="620"/>
                        </Array>
                    </mxGeometry>
                </mxCell>
                <mxCell id="zvofmDwbq_4A2cF_RUKj-21" value="Login info" style="text;html=1;align=center;verticalAlign=middle;resizable=0;points=[];autosize=1;strokeColor=none;fillColor=none;fontSize=18;" parent="1" vertex="1">
                    <mxGeometry x="150" y="640" width="100" height="40" as="geometry"/>
                </mxCell>
                <mxCell id="zvofmDwbq_4A2cF_RUKj-22" value="" style="endArrow=classic;html=1;fontSize=18;exitX=0.237;exitY=0.022;exitDx=0;exitDy=0;exitPerimeter=0;entryX=0;entryY=0.5;entryDx=0;entryDy=0;" parent="1" source="2" target="5" edge="1">
                    <mxGeometry width="50" height="50" relative="1" as="geometry">
                        <mxPoint x="290" y="400" as="sourcePoint"/>
                        <mxPoint x="360" y="310" as="targetPoint"/>
                        <Array as="points">
                            <mxPoint x="300" y="459"/>
                            <mxPoint x="300" y="265"/>
                        </Array>
                    </mxGeometry>
                </mxCell>
                <mxCell id="zvofmDwbq_4A2cF_RUKj-23" value="Overall stats" style="text;html=1;align=center;verticalAlign=middle;resizable=0;points=[];autosize=1;strokeColor=none;fillColor=none;fontSize=18;rotation=0;" parent="1" vertex="1">
                    <mxGeometry x="170" y="320" width="120" height="40" as="geometry"/>
                </mxCell>
            </root>
        </mxGraphModel>
    </diagram>
    <diagram id="APNkPYBSaG5nj_gtQiiY" name="DFD 1">
        <mxGraphModel dx="1434" dy="2663" grid="1" gridSize="10" guides="1" tooltips="1" connect="1" arrows="1" fold="1" page="1" pageScale="1" pageWidth="850" pageHeight="1100" math="0" shadow="0">
            <root>
                <mxCell id="0"/>
                <mxCell id="1" parent="0"/>
                <mxCell id="a2422wPajGyyEE5G1223-1" value="" style="group" parent="1" vertex="1" connectable="0">
                    <mxGeometry x="140" y="-750" width="1375" height="1195" as="geometry"/>
                </mxCell>
                <mxCell id="8vzpVxEJejXU4iPb4RBN-1" value="Account &lt;br&gt;management&amp;nbsp;" style="shape=ellipse;html=1;dashed=0;whitespace=wrap;aspect=fixed;perimeter=ellipsePerimeter;fontSize=18;" parent="a2422wPajGyyEE5G1223-1" vertex="1">
                    <mxGeometry x="300" y="730" width="170" height="170" as="geometry"/>
                </mxCell>
                <mxCell id="8vzpVxEJejXU4iPb4RBN-31" style="edgeStyle=none;html=1;exitX=0;exitY=0.5;exitDx=0;exitDy=0;entryX=1;entryY=0;entryDx=0;entryDy=0;fontSize=14;" parent="a2422wPajGyyEE5G1223-1" source="8vzpVxEJejXU4iPb4RBN-2" target="8vzpVxEJejXU4iPb4RBN-1" edge="1">
                    <mxGeometry relative="1" as="geometry">
                        <Array as="points">
                            <mxPoint x="445" y="510"/>
                        </Array>
                    </mxGeometry>
                </mxCell>
                <mxCell id="8vzpVxEJejXU4iPb4RBN-2" value="Transaction&lt;br&gt;management" style="shape=ellipse;html=1;dashed=0;whitespace=wrap;aspect=fixed;perimeter=ellipsePerimeter;fontSize=18;" parent="a2422wPajGyyEE5G1223-1" vertex="1">
                    <mxGeometry x="580" y="435" width="150" height="150" as="geometry"/>
                </mxCell>
                <mxCell id="8vzpVxEJejXU4iPb4RBN-36" style="edgeStyle=none;html=1;exitX=0;exitY=0.5;exitDx=0;exitDy=0;entryX=0.5;entryY=1;entryDx=0;entryDy=0;fontSize=14;" parent="a2422wPajGyyEE5G1223-1" source="8vzpVxEJejXU4iPb4RBN-3" target="8vzpVxEJejXU4iPb4RBN-1" edge="1">
                    <mxGeometry relative="1" as="geometry">
                        <Array as="points">
                            <mxPoint x="380" y="1110"/>
                        </Array>
                    </mxGeometry>
                </mxCell>
                <mxCell id="8vzpVxEJejXU4iPb4RBN-3" value="Loan &lt;br&gt;management" style="shape=ellipse;html=1;dashed=0;whitespace=wrap;aspect=fixed;perimeter=ellipsePerimeter;fontSize=18;" parent="a2422wPajGyyEE5G1223-1" vertex="1">
                    <mxGeometry x="600" y="1025" width="170" height="170" as="geometry"/>
                </mxCell>
                <mxCell id="8vzpVxEJejXU4iPb4RBN-4" value="EMPLOYEMENT&lt;br&gt;MANAGEMENT" style="shape=ellipse;html=1;dashed=0;whitespace=wrap;aspect=fixed;perimeter=ellipsePerimeter;fontSize=18;" parent="a2422wPajGyyEE5G1223-1" vertex="1">
                    <mxGeometry x="1164" y="704" width="202" height="202" as="geometry"/>
                </mxCell>
                <mxCell id="8vzpVxEJejXU4iPb4RBN-6" value="D2 cash records" style="html=1;dashed=0;whitespace=wrap;shape=mxgraph.dfd.dataStoreID;align=left;spacingLeft=3;points=[[0,0],[0.5,0],[1,0],[0,0.5],[1,0.5],[0,1],[0.5,1],[1,1]];fontSize=18;" parent="a2422wPajGyyEE5G1223-1" vertex="1">
                    <mxGeometry x="70" y="925" width="155" height="30" as="geometry"/>
                </mxCell>
                <mxCell id="8vzpVxEJejXU4iPb4RBN-12" style="edgeStyle=none;html=1;exitX=0;exitY=1;exitDx=0;exitDy=0;fontSize=18;entryX=1;entryY=0.5;entryDx=0;entryDy=0;" parent="a2422wPajGyyEE5G1223-1" source="8vzpVxEJejXU4iPb4RBN-1" target="8vzpVxEJejXU4iPb4RBN-6" edge="1">
                    <mxGeometry relative="1" as="geometry">
                        <mxPoint x="325" y="955" as="targetPoint"/>
                        <Array as="points">
                            <mxPoint x="325" y="940"/>
                        </Array>
                    </mxGeometry>
                </mxCell>
                <mxCell id="8vzpVxEJejXU4iPb4RBN-8" value="D1 customer details" style="html=1;dashed=0;whitespace=wrap;shape=mxgraph.dfd.dataStoreID;align=left;spacingLeft=3;points=[[0,0],[0.5,0],[1,0],[0,0.5],[1,0.5],[0,1],[0.5,1],[1,1]];fontSize=18;" parent="a2422wPajGyyEE5G1223-1" vertex="1">
                    <mxGeometry x="70" y="655" width="170" height="30" as="geometry"/>
                </mxCell>
                <mxCell id="8vzpVxEJejXU4iPb4RBN-11" style="edgeStyle=none;html=1;exitX=0;exitY=0;exitDx=0;exitDy=0;entryX=0.5;entryY=1;entryDx=0;entryDy=0;fontSize=18;" parent="a2422wPajGyyEE5G1223-1" source="8vzpVxEJejXU4iPb4RBN-1" target="8vzpVxEJejXU4iPb4RBN-8" edge="1">
                    <mxGeometry relative="1" as="geometry">
                        <Array as="points">
                            <mxPoint x="155" y="755"/>
                        </Array>
                    </mxGeometry>
                </mxCell>
                <mxCell id="8vzpVxEJejXU4iPb4RBN-10" style="edgeStyle=none;html=1;exitX=1;exitY=0.5;exitDx=0;exitDy=0;entryX=0;entryY=0.5;entryDx=0;entryDy=0;fontSize=18;" parent="a2422wPajGyyEE5G1223-1" source="8vzpVxEJejXU4iPb4RBN-9" target="8vzpVxEJejXU4iPb4RBN-1" edge="1">
                    <mxGeometry relative="1" as="geometry"/>
                </mxCell>
                <mxCell id="8vzpVxEJejXU4iPb4RBN-47" style="edgeStyle=none;html=1;exitX=0.25;exitY=0;exitDx=0;exitDy=0;fontSize=14;entryX=1;entryY=0;entryDx=0;entryDy=0;" parent="a2422wPajGyyEE5G1223-1" source="8vzpVxEJejXU4iPb4RBN-9" target="8vzpVxEJejXU4iPb4RBN-2" edge="1">
                    <mxGeometry relative="1" as="geometry">
                        <mxPoint x="810" y="215" as="targetPoint"/>
                        <Array as="points">
                            <mxPoint x="28" y="215"/>
                            <mxPoint x="780" y="215"/>
                        </Array>
                    </mxGeometry>
                </mxCell>
                <mxCell id="8vzpVxEJejXU4iPb4RBN-9" value="Accountant/&lt;br&gt;cashier" style="whiteSpace=wrap;html=1;fontSize=18;" parent="a2422wPajGyyEE5G1223-1" vertex="1">
                    <mxGeometry y="785" width="110" height="60" as="geometry"/>
                </mxCell>
                <mxCell id="8vzpVxEJejXU4iPb4RBN-13" value="D3 Interest records" style="html=1;dashed=0;whitespace=wrap;shape=mxgraph.dfd.dataStoreID;align=left;spacingLeft=3;points=[[0,0],[0.5,0],[1,0],[0,0.5],[1,0.5],[0,1],[0.5,1],[1,1]];fontSize=18;" parent="a2422wPajGyyEE5G1223-1" vertex="1">
                    <mxGeometry x="70" y="555" width="170" height="30" as="geometry"/>
                </mxCell>
                <mxCell id="8vzpVxEJejXU4iPb4RBN-14" style="edgeStyle=none;html=1;exitX=0.5;exitY=0;exitDx=0;exitDy=0;fontSize=18;entryX=1;entryY=0.5;entryDx=0;entryDy=0;" parent="a2422wPajGyyEE5G1223-1" source="8vzpVxEJejXU4iPb4RBN-1" target="8vzpVxEJejXU4iPb4RBN-13" edge="1">
                    <mxGeometry relative="1" as="geometry">
                        <mxPoint x="385" y="575" as="targetPoint"/>
                        <Array as="points">
                            <mxPoint x="385" y="570"/>
                        </Array>
                    </mxGeometry>
                </mxCell>
                <mxCell id="8vzpVxEJejXU4iPb4RBN-17" style="edgeStyle=none;html=1;exitX=0;exitY=0.5;exitDx=0;exitDy=0;fontSize=18;entryX=1;entryY=0.5;entryDx=0;entryDy=0;" parent="a2422wPajGyyEE5G1223-1" source="8vzpVxEJejXU4iPb4RBN-16" target="8vzpVxEJejXU4iPb4RBN-1" edge="1">
                    <mxGeometry relative="1" as="geometry">
                        <mxPoint x="620" y="815" as="sourcePoint"/>
                    </mxGeometry>
                </mxCell>
                <mxCell id="8vzpVxEJejXU4iPb4RBN-20" style="edgeStyle=none;html=1;exitX=0.5;exitY=0;exitDx=0;exitDy=0;entryX=0.5;entryY=1;entryDx=0;entryDy=0;fontSize=18;" parent="a2422wPajGyyEE5G1223-1" source="8vzpVxEJejXU4iPb4RBN-16" target="8vzpVxEJejXU4iPb4RBN-2" edge="1">
                    <mxGeometry relative="1" as="geometry"/>
                </mxCell>
                <mxCell id="8vzpVxEJejXU4iPb4RBN-38" style="edgeStyle=none;html=1;exitX=0.75;exitY=1;exitDx=0;exitDy=0;entryX=0.5;entryY=0;entryDx=0;entryDy=0;fontSize=14;" parent="a2422wPajGyyEE5G1223-1" source="8vzpVxEJejXU4iPb4RBN-16" target="8vzpVxEJejXU4iPb4RBN-3" edge="1">
                    <mxGeometry relative="1" as="geometry">
                        <Array as="points"/>
                    </mxGeometry>
                </mxCell>
                <mxCell id="8vzpVxEJejXU4iPb4RBN-16" value="Customer" style="whiteSpace=wrap;html=1;fontSize=18;" parent="a2422wPajGyyEE5G1223-1" vertex="1">
                    <mxGeometry x="595" y="790" width="120" height="60" as="geometry"/>
                </mxCell>
                <mxCell id="8vzpVxEJejXU4iPb4RBN-22" style="edgeStyle=none;html=1;exitX=1;exitY=1;exitDx=0;exitDy=0;entryX=0.5;entryY=1;entryDx=0;entryDy=0;fontSize=14;" parent="a2422wPajGyyEE5G1223-1" source="8vzpVxEJejXU4iPb4RBN-1" target="8vzpVxEJejXU4iPb4RBN-16" edge="1">
                    <mxGeometry relative="1" as="geometry">
                        <Array as="points">
                            <mxPoint x="440" y="900"/>
                            <mxPoint x="665" y="900"/>
                        </Array>
                    </mxGeometry>
                </mxCell>
                <mxCell id="8vzpVxEJejXU4iPb4RBN-49" style="edgeStyle=none;html=1;exitX=1;exitY=0.5;exitDx=0;exitDy=0;fontSize=14;entryX=0;entryY=0;entryDx=0;entryDy=0;" parent="a2422wPajGyyEE5G1223-1" source="8vzpVxEJejXU4iPb4RBN-16" target="8vzpVxEJejXU4iPb4RBN-9" edge="1">
                    <mxGeometry relative="1" as="geometry">
                        <mxPoint x="630" y="785" as="sourcePoint"/>
                        <Array as="points">
                            <mxPoint x="810" y="820"/>
                            <mxPoint x="810" y="185"/>
                            <mxPoint y="185"/>
                        </Array>
                    </mxGeometry>
                </mxCell>
                <mxCell id="8vzpVxEJejXU4iPb4RBN-18" value="Manages queiries&lt;br&gt;realted to customer" style="text;html=1;align=center;verticalAlign=middle;resizable=0;points=[];autosize=1;strokeColor=none;fillColor=none;fontSize=18;" parent="a2422wPajGyyEE5G1223-1" vertex="1">
                    <mxGeometry x="100" y="825" width="180" height="60" as="geometry"/>
                </mxCell>
                <mxCell id="8vzpVxEJejXU4iPb4RBN-21" value="&lt;span style=&quot;font-size: 14px;&quot;&gt;Login info&lt;/span&gt;" style="text;html=1;align=center;verticalAlign=middle;resizable=0;points=[];autosize=1;strokeColor=none;fillColor=none;fontSize=18;" parent="a2422wPajGyyEE5G1223-1" vertex="1">
                    <mxGeometry x="480" y="765" width="80" height="40" as="geometry"/>
                </mxCell>
                <mxCell id="8vzpVxEJejXU4iPb4RBN-24" value="Provides all&lt;br&gt;info of the acc" style="text;html=1;align=center;verticalAlign=middle;resizable=0;points=[];autosize=1;strokeColor=none;fillColor=none;fontSize=14;" parent="a2422wPajGyyEE5G1223-1" vertex="1">
                    <mxGeometry x="495" y="850" width="110" height="50" as="geometry"/>
                </mxCell>
                <mxCell id="8vzpVxEJejXU4iPb4RBN-25" value="Requests&lt;br&gt;Transaction" style="text;html=1;align=center;verticalAlign=middle;resizable=0;points=[];autosize=1;strokeColor=none;fillColor=none;fontSize=14;" parent="a2422wPajGyyEE5G1223-1" vertex="1">
                    <mxGeometry x="670" y="585" width="100" height="50" as="geometry"/>
                </mxCell>
                <mxCell id="8vzpVxEJejXU4iPb4RBN-26" value="D5&amp;nbsp; DEBIT DETAILS" style="html=1;dashed=0;whitespace=wrap;shape=mxgraph.dfd.dataStoreID;align=left;spacingLeft=3;points=[[0,0],[0.5,0],[1,0],[0,0.5],[1,0.5],[0,1],[0.5,1],[1,1]];fontSize=14;" parent="a2422wPajGyyEE5G1223-1" vertex="1">
                    <mxGeometry x="380" y="275" width="160" height="30" as="geometry"/>
                </mxCell>
                <mxCell id="8vzpVxEJejXU4iPb4RBN-28" style="edgeStyle=none;html=1;entryX=1;entryY=0.5;entryDx=0;entryDy=0;fontSize=14;" parent="a2422wPajGyyEE5G1223-1" source="8vzpVxEJejXU4iPb4RBN-2" target="8vzpVxEJejXU4iPb4RBN-26" edge="1">
                    <mxGeometry relative="1" as="geometry">
                        <Array as="points">
                            <mxPoint x="655" y="290"/>
                        </Array>
                    </mxGeometry>
                </mxCell>
                <mxCell id="8vzpVxEJejXU4iPb4RBN-27" value="D4&amp;nbsp; CREDIT DETAILS" style="html=1;dashed=0;whitespace=wrap;shape=mxgraph.dfd.dataStoreID;align=left;spacingLeft=3;points=[[0,0],[0.5,0],[1,0],[0,0.5],[1,0.5],[0,1],[0.5,1],[1,1]];fontSize=14;" parent="a2422wPajGyyEE5G1223-1" vertex="1">
                    <mxGeometry x="380" y="335" width="160" height="30" as="geometry"/>
                </mxCell>
                <mxCell id="8vzpVxEJejXU4iPb4RBN-29" style="edgeStyle=none;html=1;exitX=0;exitY=0;exitDx=0;exitDy=0;entryX=1;entryY=0.5;entryDx=0;entryDy=0;fontSize=14;" parent="a2422wPajGyyEE5G1223-1" source="8vzpVxEJejXU4iPb4RBN-2" target="8vzpVxEJejXU4iPb4RBN-27" edge="1">
                    <mxGeometry relative="1" as="geometry">
                        <Array as="points">
                            <mxPoint x="602" y="350"/>
                        </Array>
                    </mxGeometry>
                </mxCell>
                <mxCell id="8vzpVxEJejXU4iPb4RBN-32" value="UPDATES&lt;br&gt;ACCOUNT" style="text;html=1;align=center;verticalAlign=middle;resizable=0;points=[];autosize=1;strokeColor=none;fillColor=none;fontSize=14;" parent="a2422wPajGyyEE5G1223-1" vertex="1">
                    <mxGeometry x="470" y="525" width="90" height="50" as="geometry"/>
                </mxCell>
                <mxCell id="8vzpVxEJejXU4iPb4RBN-34" value="" style="endArrow=classic;html=1;fontSize=14;exitX=0.665;exitY=0.026;exitDx=0;exitDy=0;exitPerimeter=0;entryX=0;entryY=0;entryDx=0;entryDy=0;" parent="a2422wPajGyyEE5G1223-1" source="8vzpVxEJejXU4iPb4RBN-1" target="8vzpVxEJejXU4iPb4RBN-2" edge="1">
                    <mxGeometry width="50" height="50" relative="1" as="geometry">
                        <mxPoint x="550" y="655" as="sourcePoint"/>
                        <mxPoint x="400" y="455" as="targetPoint"/>
                        <Array as="points">
                            <mxPoint x="410" y="457"/>
                        </Array>
                    </mxGeometry>
                </mxCell>
                <mxCell id="8vzpVxEJejXU4iPb4RBN-35" value="gets user info" style="text;html=1;align=center;verticalAlign=middle;resizable=0;points=[];autosize=1;strokeColor=none;fillColor=none;fontSize=14;" parent="a2422wPajGyyEE5G1223-1" vertex="1">
                    <mxGeometry x="450" y="425" width="110" height="30" as="geometry"/>
                </mxCell>
                <mxCell id="8vzpVxEJejXU4iPb4RBN-37" value="Update Account&lt;br&gt;" style="text;html=1;align=center;verticalAlign=middle;resizable=0;points=[];autosize=1;strokeColor=none;fillColor=none;fontSize=14;" parent="a2422wPajGyyEE5G1223-1" vertex="1">
                    <mxGeometry x="415" y="1055" width="120" height="30" as="geometry"/>
                </mxCell>
                <mxCell id="8vzpVxEJejXU4iPb4RBN-39" value="REQUEST&lt;br&gt;LOAN" style="text;html=1;align=center;verticalAlign=middle;resizable=0;points=[];autosize=1;strokeColor=none;fillColor=none;fontSize=14;" parent="a2422wPajGyyEE5G1223-1" vertex="1">
                    <mxGeometry x="695" y="900" width="90" height="50" as="geometry"/>
                </mxCell>
                <mxCell id="8vzpVxEJejXU4iPb4RBN-41" style="edgeStyle=none;html=1;exitX=0.5;exitY=1;exitDx=0;exitDy=0;entryX=1;entryY=0.5;entryDx=0;entryDy=0;fontSize=14;" parent="a2422wPajGyyEE5G1223-1" source="8vzpVxEJejXU4iPb4RBN-40" target="8vzpVxEJejXU4iPb4RBN-3" edge="1">
                    <mxGeometry relative="1" as="geometry">
                        <Array as="points">
                            <mxPoint x="1000" y="1110"/>
                        </Array>
                    </mxGeometry>
                </mxCell>
                <mxCell id="8vzpVxEJejXU4iPb4RBN-44" style="edgeStyle=none;html=1;exitX=0.5;exitY=0;exitDx=0;exitDy=0;fontSize=14;" parent="a2422wPajGyyEE5G1223-1" source="8vzpVxEJejXU4iPb4RBN-40" edge="1">
                    <mxGeometry relative="1" as="geometry">
                        <mxPoint x="350" y="735" as="targetPoint"/>
                        <Array as="points">
                            <mxPoint x="1000" y="255"/>
                            <mxPoint x="350" y="255"/>
                        </Array>
                    </mxGeometry>
                </mxCell>
                <mxCell id="8vzpVxEJejXU4iPb4RBN-45" style="edgeStyle=none;html=1;exitX=1;exitY=0.25;exitDx=0;exitDy=0;entryX=0;entryY=0.5;entryDx=0;entryDy=0;fontSize=14;" parent="a2422wPajGyyEE5G1223-1" source="8vzpVxEJejXU4iPb4RBN-40" target="8vzpVxEJejXU4iPb4RBN-4" edge="1">
                    <mxGeometry relative="1" as="geometry"/>
                </mxCell>
                <mxCell id="8vzpVxEJejXU4iPb4RBN-40" value="MANAGER" style="html=1;dashed=0;whitespace=wrap;fontSize=14;" parent="a2422wPajGyyEE5G1223-1" vertex="1">
                    <mxGeometry x="950" y="795" width="100" height="50" as="geometry"/>
                </mxCell>
                <mxCell id="8vzpVxEJejXU4iPb4RBN-43" value="APPROVES /&lt;br&gt;REJECTS LOAN" style="text;html=1;align=center;verticalAlign=middle;resizable=0;points=[];autosize=1;strokeColor=none;fillColor=none;fontSize=14;" parent="a2422wPajGyyEE5G1223-1" vertex="1">
                    <mxGeometry x="860" y="1045" width="130" height="50" as="geometry"/>
                </mxCell>
                <mxCell id="8vzpVxEJejXU4iPb4RBN-48" value="FOR OFFLINE TRANSACTION" style="text;html=1;align=center;verticalAlign=middle;resizable=0;points=[];autosize=1;strokeColor=none;fillColor=none;fontSize=14;" parent="a2422wPajGyyEE5G1223-1" vertex="1">
                    <mxGeometry x="210" y="225" width="220" height="30" as="geometry"/>
                </mxCell>
                <mxCell id="8vzpVxEJejXU4iPb4RBN-50" value="REQUESTS&lt;br&gt;ACCOUNT INFO /&lt;br&gt;TRANSACTION OFFLINE" style="text;html=1;align=center;verticalAlign=middle;resizable=0;points=[];autosize=1;strokeColor=none;fillColor=none;fontSize=14;" parent="a2422wPajGyyEE5G1223-1" vertex="1">
                    <mxGeometry x="300" y="115" width="190" height="60" as="geometry"/>
                </mxCell>
                <mxCell id="8vzpVxEJejXU4iPb4RBN-52" value="D6&amp;nbsp; &amp;nbsp;EMPLOYEE INFO" style="html=1;dashed=0;whitespace=wrap;shape=mxgraph.dfd.dataStoreID;align=left;spacingLeft=3;points=[[0,0],[0.5,0],[1,0],[0,0.5],[1,0.5],[0,1],[0.5,1],[1,1]];fontSize=14;" parent="a2422wPajGyyEE5G1223-1" vertex="1">
                    <mxGeometry x="1170" y="1125" width="190" height="30" as="geometry"/>
                </mxCell>
                <mxCell id="8vzpVxEJejXU4iPb4RBN-46" style="edgeStyle=none;html=1;exitX=0.5;exitY=1;exitDx=0;exitDy=0;fontSize=14;entryX=0.5;entryY=0;entryDx=0;entryDy=0;" parent="a2422wPajGyyEE5G1223-1" source="8vzpVxEJejXU4iPb4RBN-4" target="8vzpVxEJejXU4iPb4RBN-52" edge="1">
                    <mxGeometry relative="1" as="geometry">
                        <mxPoint x="1285" y="1135" as="targetPoint"/>
                    </mxGeometry>
                </mxCell>
                <mxCell id="8vzpVxEJejXU4iPb4RBN-56" style="edgeStyle=none;html=1;entryX=0.5;entryY=0;entryDx=0;entryDy=0;fontSize=14;" parent="a2422wPajGyyEE5G1223-1" target="8vzpVxEJejXU4iPb4RBN-4" edge="1">
                    <mxGeometry relative="1" as="geometry">
                        <mxPoint x="1265" y="485" as="sourcePoint"/>
                    </mxGeometry>
                </mxCell>
                <mxCell id="8vzpVxEJejXU4iPb4RBN-57" style="edgeStyle=none;html=1;exitX=0.5;exitY=0;exitDx=0;exitDy=0;entryX=0;entryY=0;entryDx=0;entryDy=0;fontSize=14;" parent="a2422wPajGyyEE5G1223-1" source="8vzpVxEJejXU4iPb4RBN-54" target="8vzpVxEJejXU4iPb4RBN-1" edge="1">
                    <mxGeometry relative="1" as="geometry">
                        <Array as="points">
                            <mxPoint x="1270" y="75"/>
                            <mxPoint x="325" y="75"/>
                        </Array>
                    </mxGeometry>
                </mxCell>
                <mxCell id="8vzpVxEJejXU4iPb4RBN-54" value="BANK" style="whiteSpace=wrap;html=1;fontSize=14;" parent="a2422wPajGyyEE5G1223-1" vertex="1">
                    <mxGeometry x="1210" y="455" width="120" height="60" as="geometry"/>
                </mxCell>
                <mxCell id="8vzpVxEJejXU4iPb4RBN-55" value="MANAGES&amp;nbsp;&lt;br&gt;EMPOYEE OF THE&amp;nbsp;&lt;br&gt;BREANCH" style="text;html=1;align=center;verticalAlign=middle;resizable=0;points=[];autosize=1;strokeColor=none;fillColor=none;fontSize=14;" parent="a2422wPajGyyEE5G1223-1" vertex="1">
                    <mxGeometry x="995" y="725" width="150" height="60" as="geometry"/>
                </mxCell>
                <mxCell id="8vzpVxEJejXU4iPb4RBN-58" value="MANAGES ACCOUNTS OF&amp;nbsp;&lt;br&gt;ALL THE BRANCH" style="text;html=1;align=center;verticalAlign=middle;resizable=0;points=[];autosize=1;strokeColor=none;fillColor=none;fontSize=14;" parent="a2422wPajGyyEE5G1223-1" vertex="1">
                    <mxGeometry x="430" width="200" height="50" as="geometry"/>
                </mxCell>
                <mxCell id="8vzpVxEJejXU4iPb4RBN-59" value="Manages&amp;nbsp;&lt;br&gt;the employees" style="text;html=1;align=center;verticalAlign=middle;resizable=0;points=[];autosize=1;strokeColor=none;fillColor=none;fontSize=14;" parent="a2422wPajGyyEE5G1223-1" vertex="1">
                    <mxGeometry x="1265" y="630" width="110" height="50" as="geometry"/>
                </mxCell>
            </root>
        </mxGraphModel>
    </diagram>
    <diagram id="u6iOpbXJyZtxe0fUs1wM" name="Class diag">
        <mxGraphModel dx="591" dy="644" grid="1" gridSize="10" guides="1" tooltips="1" connect="1" arrows="1" fold="1" page="1" pageScale="1" pageWidth="850" pageHeight="1100" math="0" shadow="0">
            <root>
                <mxCell id="0"/>
                <mxCell id="1" parent="0"/>
                <mxCell id="KHxqGY1Pc46SdBMZ1WLX-15" value="Transaction&lt;br&gt;Management" style="swimlane;fontStyle=0;align=center;verticalAlign=top;childLayout=stackLayout;horizontal=1;startSize=55;horizontalStack=0;resizeParent=1;resizeParentMax=0;resizeLast=0;collapsible=0;marginBottom=0;html=1;" parent="1" vertex="1">
                    <mxGeometry x="270" y="317" width="140" height="176" as="geometry"/>
                </mxCell>
                <mxCell id="KHxqGY1Pc46SdBMZ1WLX-16" value="attributes" style="text;html=1;strokeColor=none;fillColor=none;align=center;verticalAlign=middle;spacingLeft=4;spacingRight=4;overflow=hidden;rotatable=0;points=[[0,0.5],[1,0.5]];portConstraint=eastwest;" parent="KHxqGY1Pc46SdBMZ1WLX-15" vertex="1">
                    <mxGeometry y="55" width="140" height="20" as="geometry"/>
                </mxCell>
                <mxCell id="KHxqGY1Pc46SdBMZ1WLX-17" value="+ User info" style="text;html=1;strokeColor=none;fillColor=none;align=left;verticalAlign=middle;spacingLeft=4;spacingRight=4;overflow=hidden;rotatable=0;points=[[0,0.5],[1,0.5]];portConstraint=eastwest;" parent="KHxqGY1Pc46SdBMZ1WLX-15" vertex="1">
                    <mxGeometry y="75" width="140" height="20" as="geometry"/>
                </mxCell>
                <mxCell id="weHkYfTUy9u1eUYYXobh-1" value="+ Transaction" style="text;html=1;strokeColor=none;fillColor=none;align=left;verticalAlign=middle;spacingLeft=4;spacingRight=4;overflow=hidden;rotatable=0;points=[[0,0.5],[1,0.5]];portConstraint=eastwest;" parent="KHxqGY1Pc46SdBMZ1WLX-15" vertex="1">
                    <mxGeometry y="95" width="140" height="20" as="geometry"/>
                </mxCell>
                <mxCell id="KHxqGY1Pc46SdBMZ1WLX-19" value="..." style="text;html=1;strokeColor=none;fillColor=none;align=left;verticalAlign=middle;spacingLeft=4;spacingRight=4;overflow=hidden;rotatable=0;points=[[0,0.5],[1,0.5]];portConstraint=eastwest;" parent="KHxqGY1Pc46SdBMZ1WLX-15" vertex="1">
                    <mxGeometry y="115" width="140" height="20" as="geometry"/>
                </mxCell>
                <mxCell id="KHxqGY1Pc46SdBMZ1WLX-20" value="" style="line;strokeWidth=1;fillColor=none;align=left;verticalAlign=middle;spacingTop=-1;spacingLeft=3;spacingRight=3;rotatable=0;labelPosition=right;points=[];portConstraint=eastwest;" parent="KHxqGY1Pc46SdBMZ1WLX-15" vertex="1">
                    <mxGeometry y="135" width="140" height="8" as="geometry"/>
                </mxCell>
                <mxCell id="KHxqGY1Pc46SdBMZ1WLX-22" value="getUser()&lt;br&gt;updateTransaction()" style="text;html=1;strokeColor=none;fillColor=none;align=left;verticalAlign=middle;spacingLeft=4;spacingRight=4;overflow=hidden;rotatable=0;points=[[0,0.5],[1,0.5]];portConstraint=eastwest;" parent="KHxqGY1Pc46SdBMZ1WLX-15" vertex="1">
                    <mxGeometry y="143" width="140" height="33" as="geometry"/>
                </mxCell>
                <mxCell id="weHkYfTUy9u1eUYYXobh-2" value="User" style="swimlane;fontStyle=0;align=center;verticalAlign=top;childLayout=stackLayout;horizontal=1;startSize=55;horizontalStack=0;resizeParent=1;resizeParentMax=0;resizeLast=0;collapsible=0;marginBottom=0;html=1;" parent="1" vertex="1">
                    <mxGeometry x="505" y="317" width="140" height="210" as="geometry"/>
                </mxCell>
                <mxCell id="weHkYfTUy9u1eUYYXobh-3" value="attributes" style="text;html=1;strokeColor=none;fillColor=none;align=center;verticalAlign=middle;spacingLeft=4;spacingRight=4;overflow=hidden;rotatable=0;points=[[0,0.5],[1,0.5]];portConstraint=eastwest;" parent="weHkYfTUy9u1eUYYXobh-2" vertex="1">
                    <mxGeometry y="55" width="140" height="20" as="geometry"/>
                </mxCell>
                <mxCell id="weHkYfTUy9u1eUYYXobh-4" value="+ Details&lt;br&gt;# login token" style="text;html=1;strokeColor=none;fillColor=none;align=left;verticalAlign=middle;spacingLeft=4;spacingRight=4;overflow=hidden;rotatable=0;points=[[0,0.5],[1,0.5]];portConstraint=eastwest;" parent="weHkYfTUy9u1eUYYXobh-2" vertex="1">
                    <mxGeometry y="75" width="140" height="45" as="geometry"/>
                </mxCell>
                <mxCell id="weHkYfTUy9u1eUYYXobh-6" value="..." style="text;html=1;strokeColor=none;fillColor=none;align=left;verticalAlign=middle;spacingLeft=4;spacingRight=4;overflow=hidden;rotatable=0;points=[[0,0.5],[1,0.5]];portConstraint=eastwest;" parent="weHkYfTUy9u1eUYYXobh-2" vertex="1">
                    <mxGeometry y="120" width="140" height="15" as="geometry"/>
                </mxCell>
                <mxCell id="weHkYfTUy9u1eUYYXobh-7" value="" style="line;strokeWidth=1;fillColor=none;align=left;verticalAlign=middle;spacingTop=-1;spacingLeft=3;spacingRight=3;rotatable=0;labelPosition=right;points=[];portConstraint=eastwest;" parent="weHkYfTUy9u1eUYYXobh-2" vertex="1">
                    <mxGeometry y="135" width="140" height="8" as="geometry"/>
                </mxCell>
                <mxCell id="weHkYfTUy9u1eUYYXobh-8" value="operations" style="text;html=1;strokeColor=none;fillColor=none;align=center;verticalAlign=middle;spacingLeft=4;spacingRight=4;overflow=hidden;rotatable=0;points=[[0,0.5],[1,0.5]];portConstraint=eastwest;" parent="weHkYfTUy9u1eUYYXobh-2" vertex="1">
                    <mxGeometry y="143" width="140" height="20" as="geometry"/>
                </mxCell>
                <mxCell id="weHkYfTUy9u1eUYYXobh-9" value="updateTransaction()&lt;br&gt;getLoan()" style="text;html=1;strokeColor=none;fillColor=none;align=left;verticalAlign=middle;spacingLeft=4;spacingRight=4;overflow=hidden;rotatable=0;points=[[0,0.5],[1,0.5]];portConstraint=eastwest;" parent="weHkYfTUy9u1eUYYXobh-2" vertex="1">
                    <mxGeometry y="163" width="140" height="47" as="geometry"/>
                </mxCell>
                <mxCell id="weHkYfTUy9u1eUYYXobh-10" value="Manager" style="swimlane;fontStyle=0;align=center;verticalAlign=top;childLayout=stackLayout;horizontal=1;startSize=55;horizontalStack=0;resizeParent=1;resizeParentMax=0;resizeLast=0;collapsible=0;marginBottom=0;html=1;" parent="1" vertex="1">
                    <mxGeometry x="505" y="580" width="140" height="190" as="geometry"/>
                </mxCell>
                <mxCell id="weHkYfTUy9u1eUYYXobh-11" value="attributes" style="text;html=1;strokeColor=none;fillColor=none;align=center;verticalAlign=middle;spacingLeft=4;spacingRight=4;overflow=hidden;rotatable=0;points=[[0,0.5],[1,0.5]];portConstraint=eastwest;" parent="weHkYfTUy9u1eUYYXobh-10" vertex="1">
                    <mxGeometry y="55" width="140" height="20" as="geometry"/>
                </mxCell>
                <mxCell id="weHkYfTUy9u1eUYYXobh-12" value="+ Employees&lt;br&gt;# daily report&lt;br&gt;" style="text;html=1;strokeColor=none;fillColor=none;align=left;verticalAlign=middle;spacingLeft=4;spacingRight=4;overflow=hidden;rotatable=0;points=[[0,0.5],[1,0.5]];portConstraint=eastwest;" parent="weHkYfTUy9u1eUYYXobh-10" vertex="1">
                    <mxGeometry y="75" width="140" height="45" as="geometry"/>
                </mxCell>
                <mxCell id="weHkYfTUy9u1eUYYXobh-15" value="" style="line;strokeWidth=1;fillColor=none;align=left;verticalAlign=middle;spacingTop=-1;spacingLeft=3;spacingRight=3;rotatable=0;labelPosition=right;points=[];portConstraint=eastwest;" parent="weHkYfTUy9u1eUYYXobh-10" vertex="1">
                    <mxGeometry y="120" width="140" height="8" as="geometry"/>
                </mxCell>
                <mxCell id="weHkYfTUy9u1eUYYXobh-16" value="operations" style="text;html=1;strokeColor=none;fillColor=none;align=center;verticalAlign=middle;spacingLeft=4;spacingRight=4;overflow=hidden;rotatable=0;points=[[0,0.5],[1,0.5]];portConstraint=eastwest;" parent="weHkYfTUy9u1eUYYXobh-10" vertex="1">
                    <mxGeometry y="128" width="140" height="20" as="geometry"/>
                </mxCell>
                <mxCell id="weHkYfTUy9u1eUYYXobh-17" value="updateEmployee()&lt;br&gt;updateLoan()" style="text;html=1;strokeColor=none;fillColor=none;align=left;verticalAlign=middle;spacingLeft=4;spacingRight=4;overflow=hidden;rotatable=0;points=[[0,0.5],[1,0.5]];portConstraint=eastwest;" parent="weHkYfTUy9u1eUYYXobh-10" vertex="1">
                    <mxGeometry y="148" width="140" height="42" as="geometry"/>
                </mxCell>
                <mxCell id="weHkYfTUy9u1eUYYXobh-18" value="Employee" style="swimlane;fontStyle=0;align=center;verticalAlign=top;childLayout=stackLayout;horizontal=1;startSize=55;horizontalStack=0;resizeParent=1;resizeParentMax=0;resizeLast=0;collapsible=0;marginBottom=0;html=1;" parent="1" vertex="1">
                    <mxGeometry x="260" y="580" width="140" height="210" as="geometry"/>
                </mxCell>
                <mxCell id="weHkYfTUy9u1eUYYXobh-19" value="attributes" style="text;html=1;strokeColor=none;fillColor=none;align=center;verticalAlign=middle;spacingLeft=4;spacingRight=4;overflow=hidden;rotatable=0;points=[[0,0.5],[1,0.5]];portConstraint=eastwest;" parent="weHkYfTUy9u1eUYYXobh-18" vertex="1">
                    <mxGeometry y="55" width="140" height="20" as="geometry"/>
                </mxCell>
                <mxCell id="weHkYfTUy9u1eUYYXobh-20" value="+ Details&lt;br&gt;+transactions&lt;br&gt;" style="text;html=1;strokeColor=none;fillColor=none;align=left;verticalAlign=middle;spacingLeft=4;spacingRight=4;overflow=hidden;rotatable=0;points=[[0,0.5],[1,0.5]];portConstraint=eastwest;" parent="weHkYfTUy9u1eUYYXobh-18" vertex="1">
                    <mxGeometry y="75" width="140" height="45" as="geometry"/>
                </mxCell>
                <mxCell id="weHkYfTUy9u1eUYYXobh-22" value="..." style="text;html=1;strokeColor=none;fillColor=none;align=left;verticalAlign=middle;spacingLeft=4;spacingRight=4;overflow=hidden;rotatable=0;points=[[0,0.5],[1,0.5]];portConstraint=eastwest;" parent="weHkYfTUy9u1eUYYXobh-18" vertex="1">
                    <mxGeometry y="120" width="140" height="20" as="geometry"/>
                </mxCell>
                <mxCell id="weHkYfTUy9u1eUYYXobh-23" value="" style="line;strokeWidth=1;fillColor=none;align=left;verticalAlign=middle;spacingTop=-1;spacingLeft=3;spacingRight=3;rotatable=0;labelPosition=right;points=[];portConstraint=eastwest;" parent="weHkYfTUy9u1eUYYXobh-18" vertex="1">
                    <mxGeometry y="140" width="140" height="8" as="geometry"/>
                </mxCell>
                <mxCell id="weHkYfTUy9u1eUYYXobh-24" value="operations" style="text;html=1;strokeColor=none;fillColor=none;align=center;verticalAlign=middle;spacingLeft=4;spacingRight=4;overflow=hidden;rotatable=0;points=[[0,0.5],[1,0.5]];portConstraint=eastwest;" parent="weHkYfTUy9u1eUYYXobh-18" vertex="1">
                    <mxGeometry y="148" width="140" height="20" as="geometry"/>
                </mxCell>
                <mxCell id="weHkYfTUy9u1eUYYXobh-25" value="updateTransaction()&lt;br&gt;grantLoan()" style="text;html=1;strokeColor=none;fillColor=none;align=left;verticalAlign=middle;spacingLeft=4;spacingRight=4;overflow=hidden;rotatable=0;points=[[0,0.5],[1,0.5]];portConstraint=eastwest;" parent="weHkYfTUy9u1eUYYXobh-18" vertex="1">
                    <mxGeometry y="168" width="140" height="42" as="geometry"/>
                </mxCell>
                <mxCell id="weHkYfTUy9u1eUYYXobh-29" value="" style="endArrow=open;startArrow=none;endFill=0;startFill=0;endSize=8;html=1;verticalAlign=bottom;labelBackgroundColor=none;strokeWidth=1;exitX=1.01;exitY=0.094;exitDx=0;exitDy=0;exitPerimeter=0;entryX=0;entryY=0.5;entryDx=0;entryDy=0;" parent="1" source="weHkYfTUy9u1eUYYXobh-1" target="weHkYfTUy9u1eUYYXobh-4" edge="1">
                    <mxGeometry width="160" relative="1" as="geometry">
                        <mxPoint x="370" y="414.38" as="sourcePoint"/>
                        <mxPoint x="510" y="414" as="targetPoint"/>
                    </mxGeometry>
                </mxCell>
                <mxCell id="weHkYfTUy9u1eUYYXobh-31" value="" style="endArrow=none;startArrow=diamondThin;endFill=0;startFill=0;html=1;verticalAlign=bottom;labelBackgroundColor=none;strokeWidth=1;startSize=8;endSize=8;exitX=0.43;exitY=0.989;exitDx=0;exitDy=0;exitPerimeter=0;entryX=0.5;entryY=0;entryDx=0;entryDy=0;" parent="1" source="KHxqGY1Pc46SdBMZ1WLX-22" target="weHkYfTUy9u1eUYYXobh-18" edge="1">
                    <mxGeometry width="160" relative="1" as="geometry">
                        <mxPoint x="320" y="530" as="sourcePoint"/>
                        <mxPoint x="480" y="530" as="targetPoint"/>
                    </mxGeometry>
                </mxCell>
                <mxCell id="weHkYfTUy9u1eUYYXobh-32" value="" style="endArrow=open;startArrow=none;endFill=0;startFill=0;endSize=8;html=1;verticalAlign=bottom;labelBackgroundColor=none;strokeWidth=1;exitX=1;exitY=0.25;exitDx=0;exitDy=0;entryX=0;entryY=0.25;entryDx=0;entryDy=0;" parent="1" source="weHkYfTUy9u1eUYYXobh-18" target="weHkYfTUy9u1eUYYXobh-10" edge="1">
                    <mxGeometry width="160" relative="1" as="geometry">
                        <mxPoint x="400" y="674" as="sourcePoint"/>
                        <mxPoint x="500" y="633" as="targetPoint"/>
                    </mxGeometry>
                </mxCell>
            </root>
        </mxGraphModel>
    </diagram>
    <diagram id="qfBdDiz7PElh3aXQ9_0F" name="use case">
        <mxGraphModel dx="1004" dy="1094" grid="1" gridSize="10" guides="1" tooltips="1" connect="1" arrows="1" fold="1" page="1" pageScale="1" pageWidth="850" pageHeight="1100" math="0" shadow="0">
            <root>
                <mxCell id="0"/>
                <mxCell id="1" parent="0"/>
                <mxCell id="tSG_3SUOOp8e_n3OEw_3-2" value="" style="rounded=0;whiteSpace=wrap;html=1;fillColor=#FFFFFF;rotation=90;" parent="1" vertex="1">
                    <mxGeometry x="230" y="190" width="405" height="390" as="geometry"/>
                </mxCell>
                <mxCell id="ysxIzq1OH4vRZ772KAv3-2" value="&lt;font style=&quot;font-size: 14px;&quot;&gt;Registration&lt;/font&gt;" style="shape=ellipse;html=1;dashed=0;whitespace=wrap;perimeter=ellipsePerimeter;fillColor=#FFFFFF;" parent="1" vertex="1">
                    <mxGeometry x="270" y="210" width="100" height="50" as="geometry"/>
                </mxCell>
                <mxCell id="rx3sf8Ox0sYe5r2gi7L1-1" value="Transaction" style="shape=ellipse;html=1;dashed=0;whitespace=wrap;perimeter=ellipsePerimeter;fontSize=14;fillColor=#FFFFFF;" parent="1" vertex="1">
                    <mxGeometry x="382.5" y="280" width="100" height="50" as="geometry"/>
                </mxCell>
                <mxCell id="DtX9snehyUQi7Pai4Czf-1" value="Loan" style="shape=ellipse;html=1;dashed=0;whitespace=wrap;perimeter=ellipsePerimeter;fontSize=14;fillColor=#FFFFFF;" parent="1" vertex="1">
                    <mxGeometry x="270" y="360" width="100" height="50" as="geometry"/>
                </mxCell>
                <mxCell id="DtX9snehyUQi7Pai4Czf-2" value="Emplyee&lt;br&gt;management" style="shape=ellipse;html=1;dashed=0;whitespace=wrap;perimeter=ellipsePerimeter;fontSize=14;fillColor=#FFFFFF;" parent="1" vertex="1">
                    <mxGeometry x="270" y="440" width="100" height="50" as="geometry"/>
                </mxCell>
                <mxCell id="DtX9snehyUQi7Pai4Czf-3" value="Control&lt;br&gt;branch" style="shape=ellipse;html=1;dashed=0;whitespace=wrap;perimeter=ellipsePerimeter;fontSize=14;fillColor=#FFFFFF;" parent="1" vertex="1">
                    <mxGeometry x="270" y="525" width="100" height="50" as="geometry"/>
                </mxCell>
                <mxCell id="irmqCz9SHcHR6jO2ZwI5-1" value="Loan request" style="shape=ellipse;html=1;dashed=0;whitespace=wrap;perimeter=ellipsePerimeter;fontSize=14;fillColor=#FFFFFF;" parent="1" vertex="1">
                    <mxGeometry x="510" y="360" width="100" height="50" as="geometry"/>
                </mxCell>
                <mxCell id="K8GMCARgLmeFbtGz_6K--4" style="edgeStyle=none;html=1;exitX=0.5;exitY=0.5;exitDx=0;exitDy=0;exitPerimeter=0;fontSize=14;" parent="1" source="irmqCz9SHcHR6jO2ZwI5-2" target="ysxIzq1OH4vRZ772KAv3-2" edge="1">
                    <mxGeometry relative="1" as="geometry"/>
                </mxCell>
                <mxCell id="K8GMCARgLmeFbtGz_6K--5" style="edgeStyle=none;html=1;exitX=0.5;exitY=0.5;exitDx=0;exitDy=0;exitPerimeter=0;entryX=0;entryY=0.5;entryDx=0;entryDy=0;fontSize=14;" parent="1" source="irmqCz9SHcHR6jO2ZwI5-2" target="rx3sf8Ox0sYe5r2gi7L1-1" edge="1">
                    <mxGeometry relative="1" as="geometry"/>
                </mxCell>
                <mxCell id="irmqCz9SHcHR6jO2ZwI5-2" value="Cashier" style="shape=umlActor;verticalLabelPosition=bottom;verticalAlign=top;html=1;fontSize=14;fillColor=#FFFFFF;" parent="1" vertex="1">
                    <mxGeometry x="70" y="200" width="30" height="60" as="geometry"/>
                </mxCell>
                <mxCell id="K8GMCARgLmeFbtGz_6K--8" style="edgeStyle=none;html=1;exitX=0.5;exitY=0.5;exitDx=0;exitDy=0;exitPerimeter=0;entryX=0;entryY=0.5;entryDx=0;entryDy=0;fontSize=14;" parent="1" source="K8GMCARgLmeFbtGz_6K--1" target="DtX9snehyUQi7Pai4Czf-1" edge="1">
                    <mxGeometry relative="1" as="geometry"/>
                </mxCell>
                <mxCell id="K8GMCARgLmeFbtGz_6K--9" style="edgeStyle=none;html=1;exitX=0.5;exitY=0.5;exitDx=0;exitDy=0;exitPerimeter=0;entryX=0.5;entryY=1;entryDx=0;entryDy=0;fontSize=14;" parent="1" source="K8GMCARgLmeFbtGz_6K--1" target="ysxIzq1OH4vRZ772KAv3-2" edge="1">
                    <mxGeometry relative="1" as="geometry"/>
                </mxCell>
                <mxCell id="K8GMCARgLmeFbtGz_6K--10" style="edgeStyle=none;html=1;exitX=0.5;exitY=0.5;exitDx=0;exitDy=0;exitPerimeter=0;entryX=0;entryY=1;entryDx=0;entryDy=0;fontSize=14;" parent="1" source="K8GMCARgLmeFbtGz_6K--1" target="rx3sf8Ox0sYe5r2gi7L1-1" edge="1">
                    <mxGeometry relative="1" as="geometry"/>
                </mxCell>
                <mxCell id="K8GMCARgLmeFbtGz_6K--11" style="edgeStyle=none;html=1;exitX=0.5;exitY=0.5;exitDx=0;exitDy=0;exitPerimeter=0;entryX=0;entryY=0.5;entryDx=0;entryDy=0;fontSize=14;" parent="1" source="K8GMCARgLmeFbtGz_6K--1" target="DtX9snehyUQi7Pai4Czf-2" edge="1">
                    <mxGeometry relative="1" as="geometry"/>
                </mxCell>
                <mxCell id="K8GMCARgLmeFbtGz_6K--15" value="" style="edgeStyle=none;html=1;fontSize=14;" parent="1" source="K8GMCARgLmeFbtGz_6K--1" target="K8GMCARgLmeFbtGz_6K--2" edge="1">
                    <mxGeometry relative="1" as="geometry"/>
                </mxCell>
                <mxCell id="K8GMCARgLmeFbtGz_6K--1" value="Manager&lt;br&gt;" style="shape=umlActor;verticalLabelPosition=bottom;verticalAlign=top;html=1;fontSize=14;fillColor=#FFFFFF;" parent="1" vertex="1">
                    <mxGeometry x="70" y="355" width="30" height="60" as="geometry"/>
                </mxCell>
                <mxCell id="K8GMCARgLmeFbtGz_6K--12" style="edgeStyle=none;html=1;exitX=0.5;exitY=0.5;exitDx=0;exitDy=0;exitPerimeter=0;entryX=0;entryY=0.5;entryDx=0;entryDy=0;fontSize=14;" parent="1" source="K8GMCARgLmeFbtGz_6K--2" target="DtX9snehyUQi7Pai4Czf-3" edge="1">
                    <mxGeometry relative="1" as="geometry"/>
                </mxCell>
                <mxCell id="K8GMCARgLmeFbtGz_6K--2" value="Central branch" style="shape=umlActor;verticalLabelPosition=bottom;verticalAlign=top;html=1;fontSize=14;fillColor=#FFFFFF;" parent="1" vertex="1">
                    <mxGeometry x="70" y="515" width="30" height="60" as="geometry"/>
                </mxCell>
                <mxCell id="K8GMCARgLmeFbtGz_6K--13" style="edgeStyle=none;html=1;exitX=0.5;exitY=0.5;exitDx=0;exitDy=0;exitPerimeter=0;entryX=1;entryY=0.5;entryDx=0;entryDy=0;fontSize=14;" parent="1" source="K8GMCARgLmeFbtGz_6K--3" target="rx3sf8Ox0sYe5r2gi7L1-1" edge="1">
                    <mxGeometry relative="1" as="geometry"/>
                </mxCell>
                <mxCell id="K8GMCARgLmeFbtGz_6K--14" style="edgeStyle=none;html=1;exitX=0.5;exitY=0.5;exitDx=0;exitDy=0;exitPerimeter=0;entryX=1;entryY=0.5;entryDx=0;entryDy=0;fontSize=14;" parent="1" source="K8GMCARgLmeFbtGz_6K--3" target="irmqCz9SHcHR6jO2ZwI5-1" edge="1">
                    <mxGeometry relative="1" as="geometry"/>
                </mxCell>
                <mxCell id="K8GMCARgLmeFbtGz_6K--3" value="Actor" style="shape=umlActor;verticalLabelPosition=bottom;verticalAlign=top;html=1;fontSize=14;fillColor=#FFFFFF;" parent="1" vertex="1">
                    <mxGeometry x="710" y="280" width="30" height="60" as="geometry"/>
                </mxCell>
            </root>
        </mxGraphModel>
    </diagram>
    <diagram id="A-ebo0OcKL6ebczYNbGz" name="ER">
        <mxGraphModel dx="502" dy="547" grid="1" gridSize="10" guides="1" tooltips="1" connect="1" arrows="1" fold="1" page="1" pageScale="1" pageWidth="850" pageHeight="1100" math="0" shadow="0">
            <root>
                <mxCell id="0"/>
                <mxCell id="1" parent="0"/>
                <mxCell id="QgcZ-2oooAfbzh1rtPPX-1" value="Bank Account" style="html=1;dashed=0;whitespace=wrap;fontSize=14;fillColor=#FFFFFF;" parent="1" vertex="1">
                    <mxGeometry x="140" y="190" width="100" height="40" as="geometry"/>
                </mxCell>
                <mxCell id="QgcZ-2oooAfbzh1rtPPX-2" value="Owns by" style="shape=rhombus;html=1;dashed=0;whitespace=wrap;perimeter=rhombusPerimeter;fontSize=14;fillColor=#FFFFFF;" parent="1" vertex="1">
                    <mxGeometry x="355" y="190" width="70" height="40" as="geometry"/>
                </mxCell>
                <mxCell id="QgcZ-2oooAfbzh1rtPPX-4" value="Balance" style="shape=ellipse;html=1;dashed=0;whitespace=wrap;perimeter=ellipsePerimeter;fontSize=14;fillColor=#FFFFFF;" parent="1" vertex="1">
                    <mxGeometry x="150" y="90" width="80" height="30" as="geometry"/>
                </mxCell>
                <mxCell id="QgcZ-2oooAfbzh1rtPPX-5" value="&lt;u&gt;Account No.&lt;/u&gt;" style="shape=ellipse;html=1;dashed=0;whitespace=wrap;perimeter=ellipsePerimeter;fontSize=14;fillColor=#FFFFFF;" parent="1" vertex="1">
                    <mxGeometry x="230" y="120" width="90" height="35" as="geometry"/>
                </mxCell>
                <mxCell id="QgcZ-2oooAfbzh1rtPPX-6" value="Loan details" style="shape=ellipse;html=1;dashed=0;whitespace=wrap;perimeter=ellipsePerimeter;fontSize=14;fillColor=#FFFFFF;" parent="1" vertex="1">
                    <mxGeometry x="60" y="120" width="90" height="35" as="geometry"/>
                </mxCell>
                <mxCell id="QgcZ-2oooAfbzh1rtPPX-10" value="" style="endArrow=none;html=1;fontSize=14;entryX=0.5;entryY=1;entryDx=0;entryDy=0;exitX=0.5;exitY=0;exitDx=0;exitDy=0;" parent="1" source="QgcZ-2oooAfbzh1rtPPX-1" target="QgcZ-2oooAfbzh1rtPPX-4" edge="1">
                    <mxGeometry width="50" height="50" relative="1" as="geometry">
                        <mxPoint x="70" y="120" as="sourcePoint"/>
                        <mxPoint x="120" y="70" as="targetPoint"/>
                        <Array as="points"/>
                    </mxGeometry>
                </mxCell>
                <mxCell id="QgcZ-2oooAfbzh1rtPPX-11" value="" style="endArrow=none;html=1;fontSize=14;exitX=0.75;exitY=0;exitDx=0;exitDy=0;entryX=0;entryY=1;entryDx=0;entryDy=0;" parent="1" source="QgcZ-2oooAfbzh1rtPPX-1" target="QgcZ-2oooAfbzh1rtPPX-5" edge="1">
                    <mxGeometry width="50" height="50" relative="1" as="geometry">
                        <mxPoint x="200" y="200" as="sourcePoint"/>
                        <mxPoint x="230" y="138" as="targetPoint"/>
                        <Array as="points"/>
                    </mxGeometry>
                </mxCell>
                <mxCell id="QgcZ-2oooAfbzh1rtPPX-13" value="" style="endArrow=none;html=1;fontSize=14;entryX=1;entryY=1;entryDx=0;entryDy=0;exitX=0.25;exitY=0;exitDx=0;exitDy=0;" parent="1" source="QgcZ-2oooAfbzh1rtPPX-1" target="QgcZ-2oooAfbzh1rtPPX-6" edge="1">
                    <mxGeometry width="50" height="50" relative="1" as="geometry">
                        <mxPoint x="120" y="220" as="sourcePoint"/>
                        <mxPoint x="120" y="150" as="targetPoint"/>
                        <Array as="points"/>
                    </mxGeometry>
                </mxCell>
                <mxCell id="QgcZ-2oooAfbzh1rtPPX-14" value="" style="endArrow=none;html=1;fontSize=14;entryX=0;entryY=0.5;entryDx=0;entryDy=0;" parent="1" target="QgcZ-2oooAfbzh1rtPPX-2" edge="1">
                    <mxGeometry width="50" height="50" relative="1" as="geometry">
                        <mxPoint x="240" y="210" as="sourcePoint"/>
                        <mxPoint x="350" y="210" as="targetPoint"/>
                    </mxGeometry>
                </mxCell>
                <mxCell id="QgcZ-2oooAfbzh1rtPPX-15" value="Has" style="rhombus;whiteSpace=wrap;html=1;fontSize=14;fillColor=#FFFFFF;" parent="1" vertex="1">
                    <mxGeometry x="30" y="280" width="50" height="40" as="geometry"/>
                </mxCell>
                <mxCell id="QgcZ-2oooAfbzh1rtPPX-16" value="" style="endArrow=none;html=1;fontSize=14;exitX=0.5;exitY=0;exitDx=0;exitDy=0;entryX=0;entryY=0.5;entryDx=0;entryDy=0;" parent="1" source="QgcZ-2oooAfbzh1rtPPX-15" target="QgcZ-2oooAfbzh1rtPPX-1" edge="1">
                    <mxGeometry width="50" height="50" relative="1" as="geometry">
                        <mxPoint x="90" y="260" as="sourcePoint"/>
                        <mxPoint x="120" y="210" as="targetPoint"/>
                        <Array as="points">
                            <mxPoint x="55" y="210"/>
                        </Array>
                    </mxGeometry>
                </mxCell>
                <mxCell id="QgcZ-2oooAfbzh1rtPPX-17" value="" style="endArrow=none;html=1;fontSize=14;entryX=0.5;entryY=1;entryDx=0;entryDy=0;" parent="1" target="QgcZ-2oooAfbzh1rtPPX-15" edge="1">
                    <mxGeometry width="50" height="50" relative="1" as="geometry">
                        <mxPoint x="55" y="380" as="sourcePoint"/>
                        <mxPoint x="50" y="320" as="targetPoint"/>
                    </mxGeometry>
                </mxCell>
                <mxCell id="QgcZ-2oooAfbzh1rtPPX-18" value="Branch" style="rounded=0;whiteSpace=wrap;html=1;fontSize=14;fillColor=#FFFFFF;" parent="1" vertex="1">
                    <mxGeometry x="20" y="380" width="80" height="30" as="geometry"/>
                </mxCell>
                <mxCell id="QgcZ-2oooAfbzh1rtPPX-19" value="Customer" style="rounded=0;whiteSpace=wrap;html=1;fontSize=14;fillColor=#FFFFFF;" parent="1" vertex="1">
                    <mxGeometry x="500" y="195" width="110" height="30" as="geometry"/>
                </mxCell>
                <mxCell id="QgcZ-2oooAfbzh1rtPPX-20" value="" style="endArrow=none;html=1;fontSize=14;exitX=1;exitY=0.5;exitDx=0;exitDy=0;entryX=0;entryY=0.5;entryDx=0;entryDy=0;" parent="1" source="QgcZ-2oooAfbzh1rtPPX-2" target="QgcZ-2oooAfbzh1rtPPX-19" edge="1">
                    <mxGeometry width="50" height="50" relative="1" as="geometry">
                        <mxPoint x="450" y="260" as="sourcePoint"/>
                        <mxPoint x="490" y="210" as="targetPoint"/>
                    </mxGeometry>
                </mxCell>
                <mxCell id="QgcZ-2oooAfbzh1rtPPX-21" value="" style="endArrow=none;html=1;fontSize=14;exitX=0.75;exitY=0;exitDx=0;exitDy=0;entryX=0.5;entryY=1;entryDx=0;entryDy=0;" parent="1" source="QgcZ-2oooAfbzh1rtPPX-19" target="QgcZ-2oooAfbzh1rtPPX-22" edge="1">
                    <mxGeometry width="50" height="50" relative="1" as="geometry">
                        <mxPoint x="520" y="160" as="sourcePoint"/>
                        <mxPoint x="610" y="140" as="targetPoint"/>
                    </mxGeometry>
                </mxCell>
                <mxCell id="QgcZ-2oooAfbzh1rtPPX-22" value="Last name" style="ellipse;whiteSpace=wrap;html=1;fontSize=14;fillColor=#FFFFFF;" parent="1" vertex="1">
                    <mxGeometry x="570" y="110" width="90" height="35" as="geometry"/>
                </mxCell>
                <mxCell id="QgcZ-2oooAfbzh1rtPPX-23" value="First name" style="ellipse;whiteSpace=wrap;html=1;fontSize=14;fillColor=#FFFFFF;" parent="1" vertex="1">
                    <mxGeometry x="450" y="110" width="90" height="35" as="geometry"/>
                </mxCell>
                <mxCell id="QgcZ-2oooAfbzh1rtPPX-24" value="" style="endArrow=none;html=1;fontSize=14;entryX=0.5;entryY=1;entryDx=0;entryDy=0;exitX=0.25;exitY=0;exitDx=0;exitDy=0;" parent="1" source="QgcZ-2oooAfbzh1rtPPX-19" target="QgcZ-2oooAfbzh1rtPPX-23" edge="1">
                    <mxGeometry width="50" height="50" relative="1" as="geometry">
                        <mxPoint x="450" y="200" as="sourcePoint"/>
                        <mxPoint x="500" y="150" as="targetPoint"/>
                    </mxGeometry>
                </mxCell>
                <mxCell id="QgcZ-2oooAfbzh1rtPPX-25" value="" style="endArrow=none;html=1;fontSize=14;entryX=0.5;entryY=1;entryDx=0;entryDy=0;" parent="1" target="QgcZ-2oooAfbzh1rtPPX-1" edge="1">
                    <mxGeometry width="50" height="50" relative="1" as="geometry">
                        <mxPoint x="190" y="370" as="sourcePoint"/>
                        <mxPoint x="210" y="260" as="targetPoint"/>
                    </mxGeometry>
                </mxCell>
                <mxCell id="QgcZ-2oooAfbzh1rtPPX-26" value="&lt;font style=&quot;font-size: 12px;&quot;&gt;Attached&lt;br&gt;to&lt;/font&gt;" style="rhombus;whiteSpace=wrap;html=1;fontSize=14;fillColor=#FFFFFF;" parent="1" vertex="1">
                    <mxGeometry x="151.25" y="370" width="77.5" height="50" as="geometry"/>
                </mxCell>
                <mxCell id="QgcZ-2oooAfbzh1rtPPX-28" value="" style="endArrow=none;html=1;fontSize=12;exitX=1;exitY=0.5;exitDx=0;exitDy=0;entryX=0;entryY=0.5;entryDx=0;entryDy=0;" parent="1" source="QgcZ-2oooAfbzh1rtPPX-26" target="QgcZ-2oooAfbzh1rtPPX-29" edge="1">
                    <mxGeometry width="50" height="50" relative="1" as="geometry">
                        <mxPoint x="290" y="400" as="sourcePoint"/>
                        <mxPoint x="340" y="350" as="targetPoint"/>
                    </mxGeometry>
                </mxCell>
                <mxCell id="QgcZ-2oooAfbzh1rtPPX-29" value="Transaction" style="rounded=0;whiteSpace=wrap;html=1;fontSize=12;fillColor=#FFFFFF;" parent="1" vertex="1">
                    <mxGeometry x="400" y="377.5" width="110" height="35" as="geometry"/>
                </mxCell>
                <mxCell id="QgcZ-2oooAfbzh1rtPPX-30" value="" style="endArrow=none;html=1;fontSize=12;exitX=0.5;exitY=0;exitDx=0;exitDy=0;" parent="1" source="QgcZ-2oooAfbzh1rtPPX-29" edge="1">
                    <mxGeometry width="50" height="50" relative="1" as="geometry">
                        <mxPoint x="450" y="360" as="sourcePoint"/>
                        <mxPoint x="455" y="320" as="targetPoint"/>
                    </mxGeometry>
                </mxCell>
                <mxCell id="QgcZ-2oooAfbzh1rtPPX-31" value="Timestamp" style="ellipse;whiteSpace=wrap;html=1;fontSize=12;fillColor=#FFFFFF;" parent="1" vertex="1">
                    <mxGeometry x="410" y="280" width="90" height="40" as="geometry"/>
                </mxCell>
                <mxCell id="Zt0AagQfRPy5eLORnYgF-1" value="" style="endArrow=none;html=1;fontSize=12;exitX=1;exitY=0;exitDx=0;exitDy=0;" parent="1" source="QgcZ-2oooAfbzh1rtPPX-29" target="Zt0AagQfRPy5eLORnYgF-5" edge="1">
                    <mxGeometry width="50" height="50" relative="1" as="geometry">
                        <mxPoint x="520" y="380" as="sourcePoint"/>
                        <mxPoint x="570" y="330" as="targetPoint"/>
                    </mxGeometry>
                </mxCell>
                <mxCell id="Zt0AagQfRPy5eLORnYgF-2" value="" style="endArrow=none;html=1;fontSize=12;exitX=1;exitY=0.5;exitDx=0;exitDy=0;" parent="1" source="QgcZ-2oooAfbzh1rtPPX-29" target="Zt0AagQfRPy5eLORnYgF-4" edge="1">
                    <mxGeometry width="50" height="50" relative="1" as="geometry">
                        <mxPoint x="530" y="400" as="sourcePoint"/>
                        <mxPoint x="600" y="390" as="targetPoint"/>
                    </mxGeometry>
                </mxCell>
                <mxCell id="Zt0AagQfRPy5eLORnYgF-3" value="" style="endArrow=none;html=1;fontSize=12;exitX=1;exitY=1;exitDx=0;exitDy=0;" parent="1" source="QgcZ-2oooAfbzh1rtPPX-29" target="Zt0AagQfRPy5eLORnYgF-6" edge="1">
                    <mxGeometry width="50" height="50" relative="1" as="geometry">
                        <mxPoint x="550" y="430" as="sourcePoint"/>
                        <mxPoint x="590" y="450" as="targetPoint"/>
                    </mxGeometry>
                </mxCell>
                <mxCell id="Zt0AagQfRPy5eLORnYgF-4" value="Withdrawl acc" style="ellipse;whiteSpace=wrap;html=1;fontSize=12;fillColor=#FFFFFF;" parent="1" vertex="1">
                    <mxGeometry x="590" y="377.5" width="90" height="35" as="geometry"/>
                </mxCell>
                <mxCell id="Zt0AagQfRPy5eLORnYgF-5" value="Depositor acc" style="ellipse;whiteSpace=wrap;html=1;fontSize=12;fillColor=#FFFFFF;" parent="1" vertex="1">
                    <mxGeometry x="565" y="300" width="100" height="30" as="geometry"/>
                </mxCell>
                <mxCell id="Zt0AagQfRPy5eLORnYgF-6" value="Amount" style="ellipse;whiteSpace=wrap;html=1;fontSize=12;fillColor=#FFFFFF;" parent="1" vertex="1">
                    <mxGeometry x="590" y="480" width="75" height="30" as="geometry"/>
                </mxCell>
                <mxCell id="QShLoM3OeapnRQYDUp0R-1" value="Employyes" style="rounded=0;whiteSpace=wrap;html=1;fontSize=12;fillColor=#FFFFFF;" parent="1" vertex="1">
                    <mxGeometry x="12.5" y="500" width="100" height="35" as="geometry"/>
                </mxCell>
                <mxCell id="QShLoM3OeapnRQYDUp0R-2" value="&lt;u&gt;customer id&lt;/u&gt;" style="ellipse;whiteSpace=wrap;html=1;fontSize=12;fillColor=#FFFFFF;" parent="1" vertex="1">
                    <mxGeometry x="690" y="185" width="90" height="50" as="geometry"/>
                </mxCell>
                <mxCell id="QShLoM3OeapnRQYDUp0R-3" value="" style="endArrow=none;html=1;fontSize=12;exitX=1;exitY=0.5;exitDx=0;exitDy=0;entryX=0;entryY=0.5;entryDx=0;entryDy=0;" parent="1" source="QgcZ-2oooAfbzh1rtPPX-19" target="QShLoM3OeapnRQYDUp0R-2" edge="1">
                    <mxGeometry width="50" height="50" relative="1" as="geometry">
                        <mxPoint x="640" y="230" as="sourcePoint"/>
                        <mxPoint x="690" y="180" as="targetPoint"/>
                    </mxGeometry>
                </mxCell>
                <mxCell id="QShLoM3OeapnRQYDUp0R-5" value="" style="endArrow=none;html=1;fontSize=12;entryX=0.5;entryY=1;entryDx=0;entryDy=0;exitX=0.5;exitY=0;exitDx=0;exitDy=0;" parent="1" target="QgcZ-2oooAfbzh1rtPPX-29" edge="1">
                    <mxGeometry width="50" height="50" relative="1" as="geometry">
                        <mxPoint x="455" y="480.0000000000001" as="sourcePoint"/>
                        <mxPoint x="460" y="420" as="targetPoint"/>
                    </mxGeometry>
                </mxCell>
                <mxCell id="QShLoM3OeapnRQYDUp0R-8" value="Transaction id" style="ellipse;whiteSpace=wrap;html=1;fontSize=12;fillColor=#FFFFFF;" parent="1" vertex="1">
                    <mxGeometry x="407.5" y="480" width="95" height="30" as="geometry"/>
                </mxCell>
                <mxCell id="QShLoM3OeapnRQYDUp0R-9" value="" style="endArrow=none;html=1;fontSize=12;exitX=1;exitY=0.5;exitDx=0;exitDy=0;entryX=0;entryY=0.5;entryDx=0;entryDy=0;" parent="1" source="QShLoM3OeapnRQYDUp0R-1" target="QShLoM3OeapnRQYDUp0R-10" edge="1">
                    <mxGeometry width="50" height="50" relative="1" as="geometry">
                        <mxPoint x="150" y="510" as="sourcePoint"/>
                        <mxPoint x="210" y="495" as="targetPoint"/>
                    </mxGeometry>
                </mxCell>
                <mxCell id="QShLoM3OeapnRQYDUp0R-10" value="First name" style="ellipse;whiteSpace=wrap;html=1;fontSize=12;fillColor=#FFFFFF;" parent="1" vertex="1">
                    <mxGeometry x="230" y="435" width="95" height="42.5" as="geometry"/>
                </mxCell>
                <mxCell id="QShLoM3OeapnRQYDUp0R-11" value="&lt;font style=&quot;font-size: 12px;&quot;&gt;Last name&lt;/font&gt;" style="ellipse;whiteSpace=wrap;html=1;fontSize=14;fillColor=#FFFFFF;" parent="1" vertex="1">
                    <mxGeometry x="228.75" y="540" width="90" height="35" as="geometry"/>
                </mxCell>
                <mxCell id="QShLoM3OeapnRQYDUp0R-12" value="" style="endArrow=none;html=1;fontSize=12;exitX=1;exitY=0.5;exitDx=0;exitDy=0;entryX=0;entryY=0.5;entryDx=0;entryDy=0;" parent="1" source="QShLoM3OeapnRQYDUp0R-1" target="QShLoM3OeapnRQYDUp0R-11" edge="1">
                    <mxGeometry width="50" height="50" relative="1" as="geometry">
                        <mxPoint x="120" y="570" as="sourcePoint"/>
                        <mxPoint x="170" y="520" as="targetPoint"/>
                    </mxGeometry>
                </mxCell>
                <mxCell id="QShLoM3OeapnRQYDUp0R-14" value="Emplyee No." style="ellipse;whiteSpace=wrap;html=1;fontSize=12;fillColor=#FFFFFF;" parent="1" vertex="1">
                    <mxGeometry x="12.5" y="430" width="95" height="40" as="geometry"/>
                </mxCell>
                <mxCell id="sNUfnKC0tEXUJZi3Dfyx-1" value="" style="endArrow=none;html=1;fontSize=12;exitX=0.5;exitY=0;exitDx=0;exitDy=0;entryX=0.5;entryY=1;entryDx=0;entryDy=0;" parent="1" source="QShLoM3OeapnRQYDUp0R-1" target="QShLoM3OeapnRQYDUp0R-14" edge="1">
                    <mxGeometry width="50" height="50" relative="1" as="geometry">
                        <mxPoint x="60" y="430" as="sourcePoint"/>
                        <mxPoint x="70" y="440" as="targetPoint"/>
                    </mxGeometry>
                </mxCell>
            </root>
        </mxGraphModel>
    </diagram>
    <diagram id="cbd54o2BcJfZ40CpUru5" name="Activity">
        <mxGraphModel dx="591" dy="644" grid="1" gridSize="10" guides="1" tooltips="1" connect="1" arrows="1" fold="1" page="1" pageScale="1" pageWidth="850" pageHeight="1100" math="0" shadow="0">
            <root>
                <mxCell id="0"/>
                <mxCell id="1" parent="0"/>
                <mxCell id="dCQ6NSM0ua3pAIEpyXOl-12" value="" style="shape=internalStorage;whiteSpace=wrap;html=1;backgroundOutline=1;fontSize=12;dx=160;dy=30;" parent="1" vertex="1">
                    <mxGeometry x="210" y="250" width="340" height="400" as="geometry"/>
                </mxCell>
                <mxCell id="dCQ6NSM0ua3pAIEpyXOl-13" value="&lt;font style=&quot;font-size: 14px;&quot;&gt;Customer&lt;/font&gt;" style="text;html=1;align=center;verticalAlign=middle;whiteSpace=wrap;rounded=0;fontSize=12;" parent="1" vertex="1">
                    <mxGeometry x="210" y="250" width="160" height="30" as="geometry"/>
                </mxCell>
                <mxCell id="dCQ6NSM0ua3pAIEpyXOl-14" value="&lt;span style=&quot;font-size: 14px;&quot;&gt;Banking system&lt;/span&gt;" style="text;html=1;align=center;verticalAlign=middle;whiteSpace=wrap;rounded=0;fontSize=12;" parent="1" vertex="1">
                    <mxGeometry x="370" y="250" width="180" height="30" as="geometry"/>
                </mxCell>
                <mxCell id="dCQ6NSM0ua3pAIEpyXOl-20" style="edgeStyle=none;html=1;exitX=0;exitY=0.5;exitDx=0;exitDy=0;exitPerimeter=0;entryX=0;entryY=0.5;entryDx=0;entryDy=0;fontSize=14;entryPerimeter=0;" parent="1" source="dCQ6NSM0ua3pAIEpyXOl-17" target="dCQ6NSM0ua3pAIEpyXOl-21" edge="1">
                    <mxGeometry relative="1" as="geometry">
                        <Array as="points">
                            <mxPoint x="220" y="345"/>
                            <mxPoint x="220" y="385"/>
                        </Array>
                    </mxGeometry>
                </mxCell>
                <mxCell id="dCQ6NSM0ua3pAIEpyXOl-17" value="start" style="html=1;dashed=0;whitespace=wrap;shape=mxgraph.dfd.start;fontSize=14;" parent="1" vertex="1">
                    <mxGeometry x="250" y="330" width="80" height="30" as="geometry"/>
                </mxCell>
                <mxCell id="dCQ6NSM0ua3pAIEpyXOl-19" style="edgeStyle=none;html=1;exitX=0.5;exitY=1;exitDx=0;exitDy=0;entryX=0.5;entryY=0.5;entryDx=0;entryDy=-15;entryPerimeter=0;fontSize=14;" parent="1" source="dCQ6NSM0ua3pAIEpyXOl-18" target="dCQ6NSM0ua3pAIEpyXOl-17" edge="1">
                    <mxGeometry relative="1" as="geometry"/>
                </mxCell>
                <mxCell id="dCQ6NSM0ua3pAIEpyXOl-18" value="" style="ellipse;whiteSpace=wrap;html=1;aspect=fixed;fontSize=14;" parent="1" vertex="1">
                    <mxGeometry x="275" y="280" width="30" height="30" as="geometry"/>
                </mxCell>
                <mxCell id="dCQ6NSM0ua3pAIEpyXOl-23" style="edgeStyle=none;html=1;exitX=1;exitY=0.5;exitDx=0;exitDy=0;exitPerimeter=0;entryX=0;entryY=0.5;entryDx=0;entryDy=0;entryPerimeter=0;fontSize=12;" parent="1" source="dCQ6NSM0ua3pAIEpyXOl-21" target="dCQ6NSM0ua3pAIEpyXOl-22" edge="1">
                    <mxGeometry relative="1" as="geometry">
                        <Array as="points">
                            <mxPoint x="380" y="385"/>
                            <mxPoint x="380" y="325"/>
                        </Array>
                    </mxGeometry>
                </mxCell>
                <mxCell id="dCQ6NSM0ua3pAIEpyXOl-21" value="&lt;font style=&quot;font-size: 12px;&quot;&gt;provides login info&lt;/font&gt;" style="html=1;dashed=0;whitespace=wrap;shape=mxgraph.dfd.start;fontSize=14;" parent="1" vertex="1">
                    <mxGeometry x="235" y="370" width="110" height="30" as="geometry"/>
                </mxCell>
                <mxCell id="dCQ6NSM0ua3pAIEpyXOl-28" style="edgeStyle=none;html=1;exitX=0.5;exitY=0.5;exitDx=0;exitDy=15;exitPerimeter=0;entryX=0.5;entryY=0.5;entryDx=0;entryDy=-15;entryPerimeter=0;fontSize=12;" parent="1" source="dCQ6NSM0ua3pAIEpyXOl-22" target="dCQ6NSM0ua3pAIEpyXOl-27" edge="1">
                    <mxGeometry relative="1" as="geometry"/>
                </mxCell>
                <mxCell id="dCQ6NSM0ua3pAIEpyXOl-22" value="&lt;font style=&quot;font-size: 12px;&quot;&gt;verify login&amp;nbsp;&lt;/font&gt;" style="html=1;dashed=0;whitespace=wrap;shape=mxgraph.dfd.start;fontSize=14;" parent="1" vertex="1">
                    <mxGeometry x="420" y="310" width="80" height="30" as="geometry"/>
                </mxCell>
                <mxCell id="dCQ6NSM0ua3pAIEpyXOl-32" style="edgeStyle=none;html=1;exitX=0.5;exitY=0.5;exitDx=0;exitDy=15;exitPerimeter=0;entryX=0.5;entryY=0.5;entryDx=0;entryDy=-15;entryPerimeter=0;fontSize=12;" parent="1" source="dCQ6NSM0ua3pAIEpyXOl-25" target="dCQ6NSM0ua3pAIEpyXOl-31" edge="1">
                    <mxGeometry relative="1" as="geometry"/>
                </mxCell>
                <mxCell id="dCQ6NSM0ua3pAIEpyXOl-25" value="display acc info" style="html=1;dashed=0;whitespace=wrap;shape=mxgraph.dfd.start;fontSize=12;" parent="1" vertex="1">
                    <mxGeometry x="242.5" y="410" width="95" height="30" as="geometry"/>
                </mxCell>
                <mxCell id="dCQ6NSM0ua3pAIEpyXOl-29" style="edgeStyle=none;html=1;exitX=0;exitY=0;exitDx=4.395;exitDy=25.604999999999997;exitPerimeter=0;entryX=1;entryY=0.5;entryDx=0;entryDy=0;entryPerimeter=0;fontSize=12;" parent="1" source="dCQ6NSM0ua3pAIEpyXOl-27" target="dCQ6NSM0ua3pAIEpyXOl-25" edge="1">
                    <mxGeometry relative="1" as="geometry">
                        <Array as="points">
                            <mxPoint x="414" y="425"/>
                        </Array>
                    </mxGeometry>
                </mxCell>
                <mxCell id="dCQ6NSM0ua3pAIEpyXOl-27" value="provides acc info" style="html=1;dashed=0;whitespace=wrap;shape=mxgraph.dfd.start;fontSize=12;" parent="1" vertex="1">
                    <mxGeometry x="410" y="360" width="100" height="30" as="geometry"/>
                </mxCell>
                <mxCell id="dCQ6NSM0ua3pAIEpyXOl-31" value="request transaction" style="html=1;dashed=0;whitespace=wrap;shape=mxgraph.dfd.start;fontSize=12;" parent="1" vertex="1">
                    <mxGeometry x="235" y="500" width="110" height="30" as="geometry"/>
                </mxCell>
            </root>
        </mxGraphModel>
    </diagram>
</mxfile>